<svg xmlns="http://www.w3.org/2000/svg" viewBox="0 0 32.18 32.18"><defs><style>.cls-1,.cls-3{fill:#0d6efd;}.cls-2{fill:#fff;}.cls-3{opacity:0.3;}</style></defs><g id="Layer_2" data-name="Layer 2"><g id="Layer_1-2" data-name="Layer 1"><rect class="cls-1" width="15.37" height="15.37" rx="4.1"/><path class="cls-2" d="M8.37,10.2a5.71,5.71,0,0,0,1.05-.1,6.24,6.24,0,0,0,1-.29v1.28a6.51,6.51,0,0,1-1.18.37,6.4,6.4,0,0,1-1.09.1,3,3,0,0,1-2.5-.9,4.89,4.89,0,0,1-.7-3,4.29,4.29,0,0,1,.84-2.93,3.48,3.48,0,0,1,2.7-.93c.36,0,.69,0,1,0s.55,0,.78.08V5.18l-.88-.06-.88,0a1.94,1.94,0,0,0-1.64.57,3.38,3.38,0,0,0-.43,2,3.65,3.65,0,0,0,.39,2A1.83,1.83,0,0,0,8.37,10.2Z"/><rect class="cls-3" y="16.82" width="15.37" height="15.37" rx="4.1"/><path class="cls-1" d="M9.36,25.13V20.69H10.8v4.44a3.31,3.31,0,0,1-.77,2.4,3.13,3.13,0,0,1-2.35.79,3.24,3.24,0,0,1-2.37-.76,3.38,3.38,0,0,1-.74-2.43V20.69H6v4.44a2.16,2.16,0,0,0,.36,1.44A1.74,1.74,0,0,0,7.68,27,1.72,1.72,0,0,0,9,26.56,2.14,2.14,0,0,0,9.36,25.13Z"/><rect class="cls-3" x="16.82" y="16.82" width="15.37" height="15.37" rx="4.1" transform="translate(49) rotate(90)"/><path class="cls-1" d="M25.22,20.74v7.52H23.78V20.74Z"/><rect class="cls-3" x="16.82" y="0.08" width="15.37" height="15.37" rx="4.1" transform="translate(32.26 -16.74) rotate(90)"/><rect class="cls-1" x="19.12" y="6.55" width="5.68" height="2.27" rx="0.59" transform="translate(29.65 -14.28) rotate(90)"/><rect class="cls-1" x="23.29" y="4.84" width="4.79" height="1.17" rx="0.29" transform="translate(51.38 10.85) rotate(180)"/><rect class="cls-1" x="23.29" y="6.28" width="2.3" height="2.3" rx="0.59" transform="translate(48.89 14.87) rotate(180)"/><rect class="cls-1" x="23.29" y="8.85" width="4.79" height="1.67" rx="0.59" transform="translate(51.38 19.38) rotate(180)"/><rect class="cls-1" x="25.78" y="6.28" width="2.3" height="2.3" rx="0.59" transform="translate(53.87 14.87) rotate(180)"/></g></g></svg>